<svg width="931" height="931" viewBox="0 0 931 931" version="1.1" xmlns="http://www.w3.org/2000/svg" xmlns:xlink="http://www.w3.org/1999/xlink">
<g id="Canvas" fill="none">
<g id="Cirugias">
<g id="Ellipse">
<circle cx="465.5" cy="465.5" r="465.5" fill="#20C933"/>
</g>
<g id="heart-rate">
<g id="Group">
<g id="Group_2">
<g id="Vector">
<path d="M 504.485 223.432L 484.652 223.432C 485.526 221.669 486.395 219.903 487.237 218.115C 516.896 155.091 504.452 71.7421 458.907 28.3641C 442.211 12.4631 421.712 2.84705 399.626 0.558053C 375.224 -1.97095 349.015 4.10406 321.716 18.6141C 318.052 20.5621 316.66 25.1121 318.608 28.7771C 320.556 32.4411 325.104 33.8341 328.771 31.8851C 375.139 7.23605 417.676 9.85105 448.542 39.2471C 489.685 78.4331 500.709 154.19 473.639 211.715C 471.77 215.687 469.806 219.587 467.774 223.431L 416.313 223.431C 413.078 223.431 410.206 225.501 409.184 228.569L 403.365 246.028L 383.68 101.681C 383.191 98.0941 380.089 95.2931 376.467 95.1851C 372.837 95.0771 369.579 97.6611 368.865 101.223L 334.695 272.07L 319.306 220.772C 318.352 217.591 315.423 215.417 312.109 215.417C 312.078 215.417 312.046 215.417 312.013 215.417C 308.659 215.459 305.74 217.718 304.858 220.954L 288.937 279.33L 271.362 197.309C 270.66 194.033 267.873 191.617 264.531 191.386C 261.19 191.157 258.097 193.166 256.952 196.315L 235.146 256.281L 223.359 173.774C 222.905 170.597 220.391 167.995 217.23 167.437C 213.868 166.844 210.439 168.665 209.053 171.784L 178.975 239.463L 159.812 239.463C 156.364 239.463 153.358 241.81 152.522 245.155L 147.111 266.801L 135.231 142.061C 134.907 138.655 132.226 135.836 128.843 135.34C 125.357 134.829 121.894 136.893 120.689 140.205L 90.424 223.431L 44.226 223.431C 42.193 219.586 40.229 215.686 38.361 211.715C 24.19 181.603 20.055 144.486 27.016 109.881C 33.909 75.6101 51.106 46.6471 74.196 30.4191C 95.199 15.6561 119.804 11.4641 147.32 17.9561C 179.763 25.6091 214.54 47.8171 250.686 83.9631C 253.581 86.8571 258.42 86.8571 261.314 83.9631C 273.932 71.3441 286.58 60.2691 298.908 51.0441C 302.23 48.5571 302.909 43.8481 300.423 40.5241C 297.936 37.2011 293.225 36.5221 289.905 39.0101C 278.744 47.3611 267.365 57.1301 256.002 68.1111C 219.71 33.0281 184.338 11.2461 150.771 3.32805C 119.344 -4.08595 89.875 1.03106 65.555 18.1231C 38.959 36.8141 20.04 68.3491 12.283 106.917C 4.588 145.171 9.021 184.661 24.763 218.113C 25.605 219.901 26.474 221.667 27.348 223.43L 7.515 223.43C 3.364 223.43 0 226.795 0 230.945C 0 235.095 3.364 238.46 7.515 238.46L 35.323 238.46C 70.162 299.848 123.256 344.685 163.57 372.402C 211.799 405.56 251.541 421.616 253.209 422.282C 254.988 422.994 257.011 422.994 258.79 422.282C 260.458 421.615 300.2 405.559 348.429 372.402C 388.744 344.686 441.837 299.848 476.676 238.46L 504.484 238.46C 508.635 238.46 511.999 235.095 511.999 230.945C 511.999 226.795 508.636 223.432 504.485 223.432ZM 340.224 359.807C 300.452 387.191 265.838 402.914 255.998 407.156C 246.192 402.934 211.8 387.323 172.085 360.02C 134.77 334.366 86.169 293.607 52.755 238.463L 95.687 238.463C 98.847 238.463 101.67 236.486 102.75 233.516L 123.427 176.652L 136.301 311.817C 136.639 315.364 139.531 318.254 143.078 318.585C 146.729 318.927 150.182 316.486 151.072 312.927L 165.679 254.494L 183.859 254.494C 186.829 254.494 189.519 252.745 190.726 250.031L 212.177 201.766L 224.514 288.121C 224.989 291.444 227.708 294.108 231.039 294.516C 234.472 294.936 237.832 292.877 239.016 289.626L 262.145 226.02L 280.714 312.679C 281.432 316.03 284.431 318.518 287.855 318.617C 291.292 318.715 294.408 316.4 295.312 313.083L 312.453 250.231L 328.958 305.248C 329.952 308.56 333.198 310.81 336.648 310.585C 340 310.367 342.865 307.854 343.524 304.561L 374.831 148.026L 392.835 280.055C 393.308 283.518 396.103 286.197 399.582 286.522C 403.059 286.842 406.304 284.73 407.41 281.416L 421.728 238.46L 459.243 238.46C 425.898 293.492 377.434 334.186 340.224 359.807Z" transform="translate(210 255)" fill="white"/>
</g>
</g>
</g>
</g>
</g>
</g>
</svg>

