<svg width="931" height="931" viewBox="0 0 931 931" version="1.1" xmlns="http://www.w3.org/2000/svg" xmlns:xlink="http://www.w3.org/1999/xlink">
<g id="Canvas" fill="none">
<g id="Consultas">
<g id="Ellipse">
<circle cx="465.5" cy="465.5" r="465.5" fill="#2D7FF9"/>
</g>
<g id="stethoscope">
<g id="Group">
<g id="Group_2">
<g id="Vector">
<path d="M 63.624 1.77002e-06C 28.541 1.77002e-06 -7.32422e-07 28.542 -7.32422e-07 63.624C -7.32422e-07 96.163 24.558 123.058 56.11 126.789L 56.11 175.843C 56.11 179.993 59.475 183.358 63.625 183.358C 67.775 183.358 71.14 179.993 71.14 175.843L 71.14 126.789C 102.692 123.058 127.25 96.162 127.25 63.624C 127.249 28.542 98.707 1.77002e-06 63.624 1.77002e-06ZM 63.624 112.219C 36.829 112.219 15.029 90.419 15.029 63.624C 15.029 36.829 36.829 15.029 63.624 15.029C 90.419 15.029 112.219 36.829 112.219 63.624C 112.219 90.419 90.42 112.219 63.624 112.219Z" transform="translate(232 321.219)" fill="white"/>
</g>
</g>
</g>
<g id="Group_3">
<g id="Group_4">
<g id="Vector_2">
<path d="M 31.562 -2.31934e-06C 14.159 -2.31934e-06 -4.57764e-07 14.159 -4.57764e-07 31.562C -4.57764e-07 48.965 14.159 63.124 31.562 63.124C 48.965 63.124 63.124 48.965 63.124 31.562C 63.124 14.159 48.965 -2.31934e-06 31.562 -2.31934e-06ZM 31.562 48.094C 22.446 48.094 15.03 40.677 15.03 31.562C 15.03 22.447 22.447 15.03 31.562 15.03C 40.678 15.03 48.094 22.447 48.094 31.562C 48.094 40.677 40.678 48.094 31.562 48.094Z" transform="translate(264.062 353.282)" fill="white"/>
</g>
</g>
</g>
<g id="Group_5">
<g id="Group_6">
<g id="Vector_3">
<path d="M 404.289 180.352L 399.78 180.352L 399.78 51.601C 399.78 29.778 382.025 12.024 360.203 12.024L 343.671 12.024L 343.671 7.515C 343.671 3.365 340.307 0 336.156 0L 316.117 0C 305.344 0 296.579 8.765 296.579 19.538C 296.579 30.311 305.344 39.076 316.117 39.076L 336.156 39.076C 340.307 39.076 343.671 35.711 343.671 31.561L 343.671 27.052L 360.203 27.052C 373.739 27.052 384.751 38.065 384.751 51.6L 384.751 180.351L 380.242 180.351C 376.091 180.351 372.727 183.716 372.727 187.866L 372.727 199.889C 372.727 233.314 345.533 260.507 312.109 260.507L 215.921 260.507C 182.497 260.507 155.303 233.314 155.303 199.889L 155.303 187.866C 155.303 183.716 151.938 180.351 147.788 180.351L 143.279 180.351L 143.279 51.601C 143.279 38.066 154.292 27.053 167.827 27.053L 184.359 27.053L 184.359 31.562C 184.359 35.712 187.723 39.077 191.874 39.077L 211.913 39.077C 222.686 39.077 231.451 30.312 231.451 19.539C 231.452 8.765 222.687 0 211.913 0L 191.874 0C 187.723 0 184.359 3.365 184.359 7.515L 184.359 12.024L 167.827 12.024C 146.004 12.024 128.25 29.779 128.25 51.601L 128.25 180.352L 123.741 180.352C 119.591 180.352 116.226 183.717 116.226 187.867L 116.226 199.89C 116.226 254.861 160.949 299.585 215.921 299.585L 244.477 299.585L 244.477 336.156C 244.477 340.306 247.841 343.671 251.992 343.671L 256.501 343.671L 256.501 384.25C 256.501 446.404 205.934 496.97 143.781 496.97L 127.75 496.97C 65.596 496.97 15.03 446.404 15.03 384.25L 15.03 324.466C 15.03 320.316 11.665 316.951 7.515 316.951C 3.365 316.951 -1.2207e-07 320.316 -1.2207e-07 324.466L -1.2207e-07 384.25C -1.2207e-07 454.692 57.308 512 127.75 512L 143.781 512C 214.223 512 271.531 454.692 271.531 384.25L 271.531 343.671L 276.04 343.671C 280.191 343.671 283.555 340.306 283.555 336.156L 283.555 299.585L 312.111 299.585C 367.082 299.585 411.806 254.862 411.806 199.89L 411.806 187.867C 411.804 183.717 408.44 180.352 404.289 180.352ZM 328.641 24.047L 316.117 24.047C 313.631 24.047 311.608 22.024 311.608 19.538C 311.608 17.052 313.631 15.029 316.117 15.029L 328.641 15.029L 328.641 24.047ZM 199.389 15.029L 211.913 15.029C 214.399 15.029 216.422 17.052 216.422 19.538C 216.422 22.024 214.399 24.047 211.913 24.047L 199.389 24.047L 199.389 15.029ZM 396.775 199.89C 396.775 246.574 358.795 284.555 312.11 284.555L 276.04 284.555C 271.889 284.555 268.525 287.92 268.525 292.07L 268.525 328.641L 259.507 328.641L 259.507 292.07C 259.507 287.92 256.143 284.555 251.992 284.555L 215.922 284.555C 169.237 284.555 131.257 246.574 131.257 199.89L 131.257 195.381L 140.275 195.381L 140.275 199.89C 140.275 241.603 174.21 275.538 215.923 275.538L 312.111 275.538C 353.824 275.538 387.759 241.603 387.759 199.89L 387.759 195.381L 396.777 195.381L 396.777 199.89L 396.775 199.89Z" transform="translate(288.11 209)" fill="white"/>
</g>
</g>
</g>
<g id="Group_7">
<g id="Group_8">
<g id="Vector_4">
<path d="M 61.62 6.10352e-07C 27.643 6.10352e-07 4.15039e-06 27.643 4.15039e-06 61.62C 4.15039e-06 92.676 23.035 111.217 61.62 111.217C 100.205 111.217 123.24 92.676 123.24 61.62C 123.241 27.643 95.598 6.10352e-07 61.62 6.10352e-07ZM 61.62 96.188C 44.22 96.188 15.029 91.697 15.029 61.62C 15.029 35.93 35.929 15.029 61.62 15.029C 87.311 15.029 108.211 35.93 108.211 61.62C 108.211 91.697 79.02 96.188 61.62 96.188Z" transform="translate(490.505 329.235)" fill="white"/>
</g>
</g>
</g>
<g id="Group_9">
<g id="Group_10">
<g id="Vector_5">
<path d="M 25.55 5.79834e-07C 10.191 5.79834e-07 -2.44141e-06 18.996 -2.44141e-06 31.562C -2.44141e-06 45.651 11.461 57.112 25.55 57.112C 39.639 57.112 51.1 45.651 51.1 31.562C 51.099 18.997 40.909 5.79834e-07 25.55 5.79834e-07ZM 25.55 42.083C 19.749 42.083 15.029 37.364 15.029 31.562C 15.029 24.455 21.027 15.03 25.55 15.03C 30.073 15.03 36.071 24.455 36.071 31.562C 36.07 37.363 31.351 42.083 25.55 42.083Z" transform="translate(496.517 269.117)" fill="white"/>
</g>
</g>
</g>
<g id="Group_11">
<g id="Group_12">
<g id="Vector_6">
<path d="M 25.55 5.79834e-07C 10.191 5.79834e-07 1.95313e-06 18.996 1.95313e-06 31.562C 1.95313e-06 45.651 11.461 57.112 25.55 57.112C 39.639 57.112 51.1 45.651 51.1 31.562C 51.1 18.997 40.909 5.79834e-07 25.55 5.79834e-07ZM 25.55 42.083C 19.749 42.083 15.029 37.364 15.029 31.562C 15.029 24.455 21.027 15.03 25.55 15.03C 30.073 15.03 36.071 24.455 36.071 31.562C 36.071 37.363 31.351 42.083 25.55 42.083Z" transform="translate(556.634 269.117)" fill="white"/>
</g>
</g>
</g>
<g id="Group_13">
<g id="Group_14">
<g id="Vector_7">
<path d="M 25.55 3.54004e-06C 10.191 3.54004e-06 -3.90625e-06 18.996 -3.90625e-06 31.562C -3.90625e-06 45.651 11.461 57.112 25.55 57.112C 39.639 57.112 51.1 45.651 51.1 31.562C 51.1 18.996 40.909 3.54004e-06 25.55 3.54004e-06ZM 25.55 42.082C 19.749 42.082 15.029 37.363 15.029 31.561C 15.029 24.454 21.027 15.029 25.55 15.029C 30.073 15.029 36.071 24.454 36.071 31.561C 36.07 37.363 31.351 42.082 25.55 42.082Z" transform="translate(604.728 305.188)" fill="white"/>
</g>
</g>
</g>
<g id="Group_15">
<g id="Group_16">
<g id="Vector_8">
<path d="M 25.55 3.54004e-06C 10.191 3.54004e-06 3.41797e-06 18.996 3.41797e-06 31.562C 3.41797e-06 45.651 11.461 57.112 25.55 57.112C 39.639 57.112 51.1 45.651 51.1 31.562C 51.1 18.996 40.909 3.54004e-06 25.55 3.54004e-06ZM 25.55 42.082C 19.749 42.082 15.029 37.363 15.029 31.561C 15.029 24.454 21.027 15.029 25.55 15.029C 30.073 15.029 36.071 24.454 36.071 31.561C 36.07 37.363 31.351 42.082 25.55 42.082Z" transform="translate(448.423 305.188)" fill="white"/>
</g>
</g>
</g>
</g>
</g>
</g>
</svg>

