<svg width="931" height="931" viewBox="0 0 931 931" version="1.1" xmlns="http://www.w3.org/2000/svg" xmlns:xlink="http://www.w3.org/1999/xlink">
<g id="Canvas" fill="none">
<g id="internamientos">
<g id="Ellipse">
<circle cx="465.5" cy="465.5" r="465.5" fill="#FCB400"/>
</g>
<g id="care">
<g id="Group">
<g id="Group_2">
<g id="Vector">
<path d="M 504.585 17.6638C 497.412 7.6418 485.461 0.905795 473.398 0.0857954C 463.55 -0.590205 454.629 2.74678 448.28 9.46678C 445.646 12.2548 442.627 15.5488 439.343 19.1978C 432.086 9.9948 420.735 3.87078 409.275 3.09178C 399.429 2.41678 390.506 5.75279 384.157 12.4728C 383.057 13.6378 381.881 14.9018 380.651 16.2358C 373.435 8.69979 363.347 3.78278 353.167 3.09178C 343.318 2.41678 334.398 5.75279 328.049 12.4728C 318.781 22.2838 303.678 39.4718 283.175 63.5378L 227.641 49.5338C 220.256 42.8778 187.96 16.7718 135.76 16.7718C 45.113 16.7718 3.469 65.4948 1.741 67.5678C -0.671 70.4628 -0.529 74.8408 2.077 77.5658C 5.136 80.7648 10.453 80.5888 13.288 77.1888C 13.666 76.7348 52.079 31.7998 135.761 31.7998C 187.643 31.7998 218.113 61.1668 218.627 61.6698C 219.573 62.6158 220.798 63.3008 222.093 63.6328L 322.973 89.0708C 335.777 93.1778 342.92 106.899 338.908 119.758C 336.954 126.017 332.681 131.141 326.874 134.186C 321.068 137.231 314.424 137.832 308.163 135.878C 308.082 135.853 308.002 135.829 307.919 135.807L 225.926 113.226C 225.283 113.052 224.598 112.955 223.931 112.955L 159.806 112.955C 155.656 112.955 152.292 116.318 152.292 120.469C 152.292 124.62 155.656 127.983 159.806 127.983L 222.914 127.983L 303.811 150.263C 313.758 153.332 324.631 152.329 333.849 147.494C 343.212 142.586 350.102 134.324 353.25 124.233C 354.287 120.91 354.857 117.551 355.006 114.226L 377.006 111.911C 378.952 111.706 380.742 110.75 381.995 109.246C 382.537 108.595 436.462 43.8568 459.204 19.7848C 468.659 9.7768 485.536 16.8678 492.364 26.4078C 502.861 41.0738 489.816 57.0848 485.568 61.6438C 464.693 84.0418 426.413 130.187 419.533 138.505L 273.834 211.354C 267.42 214.561 259.945 214.807 253.331 212.021L 114.63 153.621C 113.707 153.232 112.715 153.032 111.713 153.032L 7.514 153.032C 3.364 153.032 -9.77516e-09 156.395 -9.77516e-09 160.546C -9.77516e-09 164.697 3.365 168.06 7.514 168.06L 110.196 168.06L 247.5 225.871C 258.073 230.323 270.296 229.925 280.557 224.795L 427.675 151.236C 428.613 150.767 429.442 150.107 430.11 149.297C 430.55 148.764 474.367 95.7058 496.563 71.8888C 512.903 54.3608 515.978 33.5808 504.585 17.6638ZM 329.253 75.3498C 328.469 75.0588 327.672 74.7618 326.86 74.5558L 299.433 67.6398C 317.14 46.9388 330.741 31.5088 338.973 22.7958C 343.084 18.4438 348.405 17.8408 352.146 18.0878C 358.914 18.5478 365.883 22.1458 370.545 27.4398C 357.794 41.8078 342.156 60.1028 329.253 75.3498ZM 372.402 97.2868L 352.801 99.3498C 350.652 93.2478 347.026 87.7138 342.221 83.2908C 359.961 62.3458 382.324 36.2978 395.081 22.7938C 399.192 18.4418 404.514 17.8388 408.254 18.0858C 415.837 18.6018 423.682 23.0498 428.238 29.4168C 428.547 29.8488 428.833 30.2878 429.107 30.7318C 407.184 55.7168 379.962 88.2318 372.402 97.2868Z" transform="translate(210 493.049)" fill="white"/>
</g>
</g>
</g>
<g id="Group_3">
<g id="Group_4">
<g id="Vector_2">
<path d="M 61.618 3.23486e-06C 27.642 3.23486e-06 1.95312e-06 27.641 1.95312e-06 61.618C 1.95312e-06 92.673 23.035 111.213 61.618 111.213C 100.202 111.213 123.236 92.672 123.236 61.618C 123.236 27.643 95.594 3.23486e-06 61.618 3.23486e-06ZM 61.618 96.185C 44.219 96.185 15.029 91.694 15.029 61.619C 15.029 35.929 35.928 15.03 61.618 15.03C 87.308 15.03 108.207 35.929 108.207 61.619C 108.207 91.694 79.017 96.185 61.618 96.185Z" transform="translate(404.373 322.258)" fill="white"/>
</g>
</g>
</g>
<g id="Group_5">
<g id="Group_6">
<g id="Vector_3">
<path d="M 25.549 1.5564e-06C 10.19 1.5564e-06 3.54004e-06 18.996 3.54004e-06 31.561C 3.54004e-06 45.648 11.461 57.11 25.549 57.11C 39.637 57.11 51.098 45.649 51.098 31.561C 51.098 18.996 40.908 1.5564e-06 25.549 1.5564e-06ZM 25.549 42.081C 19.748 42.081 15.029 37.362 15.029 31.561C 15.029 24.453 21.026 15.029 25.549 15.029C 30.072 15.029 36.069 24.453 36.069 31.561C 36.069 37.362 31.35 42.081 25.549 42.081Z" transform="translate(410.384 262.143)" fill="white"/>
</g>
</g>
</g>
<g id="Group_7">
<g id="Group_8">
<g id="Vector_4">
<path d="M 25.549 1.5564e-06C 10.19 1.5564e-06 9.0332e-06 18.996 9.0332e-06 31.561C 9.0332e-06 45.648 11.461 57.11 25.549 57.11C 39.637 57.11 51.098 45.649 51.098 31.561C 51.098 18.996 40.908 1.5564e-06 25.549 1.5564e-06ZM 25.549 42.081C 19.748 42.081 15.029 37.362 15.029 31.561C 15.029 24.453 21.026 15.029 25.549 15.029C 30.072 15.029 36.069 24.453 36.069 31.561C 36.07 37.362 31.351 42.081 25.549 42.081Z" transform="translate(470.499 262.143)" fill="white"/>
</g>
</g>
</g>
<g id="Group_9">
<g id="Group_10">
<g id="Vector_5">
<path d="M 25.549 -2.01416e-06C 10.191 -2.01416e-06 -3.90625e-06 18.997 -3.90625e-06 31.561C -3.90625e-06 45.648 11.461 57.11 25.549 57.11C 39.637 57.11 51.098 45.649 51.098 31.561C 51.098 18.997 40.907 -2.01416e-06 25.549 -2.01416e-06ZM 25.549 42.081C 19.748 42.081 15.029 37.362 15.029 31.561C 15.029 24.453 21.027 15.029 25.549 15.029C 30.072 15.029 36.069 24.453 36.069 31.561C 36.069 37.362 31.35 42.081 25.549 42.081Z" transform="translate(518.592 298.212)" fill="white"/>
</g>
</g>
</g>
<g id="Group_11">
<g id="Group_12">
<g id="Vector_6">
<path d="M 25.549 -2.01416e-06C 10.19 -2.01416e-06 -6.95801e-06 18.997 -6.95801e-06 31.561C -6.95801e-06 45.648 11.461 57.11 25.549 57.11C 39.637 57.11 51.098 45.649 51.098 31.561C 51.098 18.997 40.908 -2.01416e-06 25.549 -2.01416e-06ZM 25.549 42.081C 19.748 42.081 15.029 37.362 15.029 31.561C 15.029 24.453 21.026 15.029 25.549 15.029C 30.072 15.029 36.069 24.453 36.069 31.561C 36.069 37.362 31.35 42.081 25.549 42.081Z" transform="translate(362.292 298.212)" fill="white"/>
</g>
</g>
</g>
<g id="Group_13">
<g id="Group_14">
<g id="Vector_7">
<path d="M 39.574 16.03L 31.058 16.03L 31.058 7.51401C 31.058 3.36301 27.695 -8.54492e-07 23.544 -8.54492e-07C 19.394 -8.54492e-07 16.03 3.36301 16.03 7.51401L 16.03 16.03L 7.514 16.03C 3.364 16.03 7.08008e-06 19.393 7.08008e-06 23.544C 7.08008e-06 27.695 3.365 31.058 7.514 31.058L 16.03 31.058L 16.03 39.574C 16.03 43.725 19.394 47.088 23.544 47.088C 27.695 47.088 31.058 43.725 31.058 39.574L 31.058 31.058L 39.574 31.058C 43.725 31.058 47.088 27.695 47.088 23.544C 47.088 19.393 43.725 16.03 39.574 16.03Z" transform="translate(442.447 354.321)" fill="white"/>
</g>
</g>
</g>
<g id="Group_15">
<g id="Group_16">
<g id="Vector_8">
<path d="M 299.544 24.5332C 284.03 8.8042 240.083 -22.1058 163.778 25.2122C 87.4773 -22.1048 43.5273 8.8052 28.0113 24.5332C -3.71868 56.7002 -9.33468 113.167 15.4923 150.407C 75.4853 240.397 156.33 292.441 159.743 294.612C 162.178 296.163 165.376 296.162 167.811 294.612C 171.224 292.441 252.07 240.398 312.063 150.407C 336.89 113.167 331.274 56.7012 299.544 24.5332ZM 299.557 142.07C 248.84 218.147 180.883 267.498 163.774 279.23C 146.669 267.511 78.7793 218.245 27.9953 142.07C 6.91332 110.444 11.7193 62.4522 38.7103 35.0882C 51.8223 21.7932 68.5033 15.1742 87.5853 15.1742C 109.126 15.1742 133.727 23.6142 159.695 40.4162C 162.179 42.0232 165.375 42.0232 167.859 40.4162C 216.831 8.7292 260.929 6.7862 288.844 35.0882C 315.836 62.4522 320.642 110.444 299.557 142.07Z" transform="translate(302.213 210)" fill="white"/>
</g>
</g>
</g>
</g>
</g>
</g>
</svg>

