<svg width="931" height="931" viewBox="0 0 931 931" version="1.1" xmlns="http://www.w3.org/2000/svg" xmlns:xlink="http://www.w3.org/1999/xlink">
<g id="Canvas" fill="none">
<g id="Laboratorio">
<g id="Ellipse">
<circle cx="465.5" cy="465.5" r="465.5" fill="#03A9F4"/>
</g>
<g id="test">
<g id="Group">
<g id="Group_2">
<g id="Vector">
<path d="M 53.46 2.816C 52.033 1.037 49.876 -1.41602e-05 47.595 -1.41602e-05C 45.314 -1.41602e-05 43.157 1.036 41.73 2.816C 37.459 8.146 -3.96729e-07 55.579 -3.96729e-07 79.658C -3.96729e-07 105.901 21.351 127.252 47.594 127.252C 73.837 127.252 95.188 105.901 95.188 79.658C 95.19 55.579 57.73 8.145 53.46 2.816ZM 47.595 112.223C 29.638 112.223 15.03 97.614 15.03 79.658C 15.03 67.229 33.122 39.049 47.596 19.783C 62.07 39.04 80.16 67.215 80.16 79.658C 80.16 97.614 65.552 112.223 47.595 112.223Z" transform="translate(272 594.748)" fill="white"/>
</g>
</g>
</g>
<g id="Group_3">
<g id="Group_4">
<g id="Vector_2">
<path d="M 311.899 88.2287L 346.262 53.8657C 358.567 41.5597 358.567 21.5358 346.261 9.22875C 333.956 -3.07625 313.932 -3.07625 301.625 9.22875L 267.263 43.5907L 232.899 9.22975C 229.963 6.29475 225.206 6.29475 222.271 9.22975L 193.931 37.5697C 191.038 40.4627 191.038 45.3037 193.931 48.1967L 222.626 76.8927L 184.903 114.616C 181.968 117.551 181.968 122.309 184.903 125.243C 187.839 128.178 192.596 128.178 195.531 125.243L 233.253 87.5197L 267.971 122.237L 174.295 215.913L 104.861 215.913L 167.935 152.839C 170.87 149.904 170.87 145.146 167.935 142.212C 164.999 139.277 160.242 139.277 157.307 142.212L 46.561 252.958C 45.991 253.529 45.515 254.188 45.154 254.911L 23.027 299.165L 6.885 315.307C -2.295 324.488 -2.295 339.426 6.885 348.607C 15.962 357.684 31.108 357.684 40.185 348.607L 56.326 332.465L 100.581 310.338C 101.303 309.977 101.963 309.502 102.534 308.93L 278.599 132.865L 307.293 161.559C 310.189 164.454 315.025 164.454 317.921 161.559L 346.261 133.219C 349.154 130.326 349.154 125.485 346.261 122.592L 311.899 88.2287ZM 92.768 297.44L 48.513 319.567C 47.791 319.928 47.131 320.403 46.56 320.975L 29.555 337.98C 26.434 341.101 21.171 341.23 17.87 338.315C 14.281 335.145 14.131 329.316 17.512 325.935L 34.517 308.93C 35.087 308.359 35.563 307.7 35.924 306.977L 58.051 262.723L 89.831 230.943L 159.265 230.943L 92.768 297.44ZM 312.253 19.8568C 318.702 13.4118 329.19 13.4108 335.634 19.8568C 342.081 26.3038 342.081 36.7917 335.634 43.2377L 301.272 77.6007L 277.891 54.2207L 312.253 19.8568ZM 312.607 145.618L 209.873 42.8837L 227.586 25.1707L 330.321 127.906L 312.607 145.618Z" transform="translate(304.077 210)" fill="white"/>
</g>
</g>
</g>
</g>
</g>
</g>
</svg>

