<svg width="931" height="931" viewBox="0 0 931 931" version="1.1" xmlns="http://www.w3.org/2000/svg" xmlns:xlink="http://www.w3.org/1999/xlink">
<g id="Canvas" fill="none">
<g id="Peluqueria">
<g id="Ellipse">
<circle cx="465.5" cy="465.5" r="465.5" fill="#F50057"/>
</g>
<g id="grooming">
<g id="Group">
<g id="Group_2">
<g id="Vector">
<path d="M 75.6238 23.2336C 71.2578 13.6066 63.4038 6.25558 53.5088 2.53458C 33.0788 -5.14742 10.2158 5.22458 2.53378 25.6506C -5.14622 46.0776 5.22378 68.9446 25.6498 76.6256C 30.1828 78.3296 34.8958 79.1796 39.5968 79.1786C 45.1598 79.1786 50.7078 77.9906 55.9248 75.6246C 65.5518 71.2576 72.9028 63.4046 76.6228 53.5096C 80.3448 43.6126 79.9888 32.8616 75.6238 23.2336ZM 62.5558 48.2186C 60.2488 54.3556 55.6888 59.2286 49.7178 61.9356C 43.7468 64.6436 37.0788 64.8646 30.9398 62.5566C 18.2698 57.7936 11.8388 43.6096 16.6018 30.9396C 20.2988 21.1066 29.6718 15.0306 39.6058 15.0306C 42.4708 15.0306 45.3828 15.5356 48.2188 16.6016C 54.3568 18.9086 59.2288 23.4686 61.9358 29.4406C 64.6438 35.4116 64.8648 42.0806 62.5558 48.2186Z" transform="translate(248.079 585.352)" fill="white"/>
</g>
</g>
</g>
<g id="Group_3">
<g id="Group_4">
<g id="Vector_2">
<path d="M 294.335 356.48C 281.989 323.642 245.223 306.973 212.389 319.319C 204.412 322.318 197.227 326.813 191.142 332.559L 179.263 300.965C 184.942 285.758 190.714 269.738 196.817 252.796C 204.159 232.414 211.752 211.338 220.029 189.324C 254.115 98.6721 245.406 10.4441 245.019 6.7311C 244.666 3.3561 241.998 0.572096 238.642 0.0780962C 235.181 -0.430904 231.743 1.59209 230.51 4.86609L 149.219 221.062L 67.9293 4.8691C 66.6983 1.5991 63.2543 -0.427905 59.7973 0.0810945C 56.4403 0.576095 53.7723 3.35909 53.4203 6.73409C 53.0333 10.4451 44.3263 98.6741 78.4103 189.326C 86.6893 211.344 94.2833 232.424 101.626 252.81C 107.723 269.735 113.521 285.828 119.173 300.976L 107.298 332.56C 101.213 326.814 94.0273 322.319 86.0513 319.32C 70.1453 313.339 52.8593 313.91 37.3823 320.929C 21.9053 327.948 10.0873 340.573 4.10526 356.48C -1.87674 372.387 -1.30474 389.672 5.71326 405.149C 12.7333 420.626 25.3583 432.444 41.2653 438.426C 51.1863 442.157 60.3333 443.855 68.8113 443.854C 106.314 443.849 130.557 410.587 149.201 372.921C 165.349 405.475 182.519 428.28 204.302 438.341C 212.35 442.058 220.714 443.916 229.522 443.916C 238.262 443.916 247.439 442.085 257.173 438.426C 290.01 426.079 306.681 389.318 294.335 356.48ZM 157.782 240.999L 231.07 46.0851C 230.373 79.8851 225.531 131.988 205.96 184.036C 197.647 206.147 190.036 227.273 182.677 247.703C 178.726 258.671 174.914 269.254 171.18 279.468L 157.18 242.232C 157.411 241.846 157.618 241.437 157.782 240.999ZM 46.5563 424.359C 34.4063 419.79 24.7623 410.764 19.4013 398.942C 14.0393 387.12 13.6043 373.919 18.1733 361.769C 27.6023 336.688 55.6823 323.956 80.7613 333.386C 90.1073 336.901 98.0323 343.103 103.678 351.321C 107.053 356.235 114.811 355.285 116.906 349.711L 127.255 322.187C 131.843 333.938 136.38 345.002 140.951 355.297C 111.422 419.38 84.8553 438.756 46.5563 424.359ZM 251.884 424.359C 236.298 430.218 222.797 430.328 210.605 424.697C 173.315 407.473 147.92 336.974 115.767 247.716C 108.406 227.281 100.795 206.152 92.4803 184.036C 72.9413 132.076 68.0943 79.9591 67.3873 46.1311L 181.535 349.711C 183.632 355.283 191.387 356.234 194.763 351.321C 200.409 343.102 208.333 336.9 217.679 333.386C 242.759 323.956 270.838 336.688 280.268 361.769C 289.698 386.851 276.965 414.928 251.884 424.359Z" transform="translate(224 246.059)" fill="white"/>
</g>
</g>
</g>
<g id="Group_5">
<g id="Group_6">
<g id="Vector_3">
<path d="M 76.6239 25.6681C 72.9029 15.7751 65.5509 7.92006 55.9249 3.55406C 46.2969 -0.811943 35.5449 -1.16695 25.6499 2.55305C 5.22289 10.2341 -5.1461 33.1011 2.5339 53.5281C 6.2549 63.4231 13.6069 71.2771 23.2329 75.6431C 28.4509 78.0091 33.9979 79.1971 39.5609 79.1971C 44.2619 79.1971 48.9749 78.3471 53.5079 76.6431C 73.9349 68.9631 84.3039 46.0961 76.6239 25.6681ZM 48.2169 62.5761C 42.0779 64.8831 35.4109 64.6631 29.4389 61.9551C 23.4669 59.2471 18.9069 54.3751 16.6009 48.2381C 11.8369 35.5681 18.2689 21.3861 30.9389 16.6211C 33.7519 15.5641 36.6729 15.0371 39.5899 15.0371C 43.0389 15.0371 46.4809 15.7741 49.7169 17.2411C 55.6889 19.9491 60.2489 24.821 62.5549 30.958C 67.3199 43.629 60.8869 57.8121 48.2169 62.5761Z" transform="translate(419.203 585.333)" fill="white"/>
</g>
</g>
</g>
<g id="Group_7">
<g id="Group_8">
<g id="Vector_4">
<path d="M 7.51499 15.03C 11.6654 15.03 15.03 11.6654 15.03 7.51499C 15.03 3.36457 11.6654 3.66211e-06 7.51499 3.66211e-06C 3.36457 3.66211e-06 -4.63867e-06 3.36457 -4.63867e-06 7.51499C -4.63867e-06 11.6654 3.36457 15.03 7.51499 15.03Z" transform="translate(365.204 535.035)" fill="white"/>
</g>
</g>
</g>
<g id="Group_9">
<g id="Group_10">
<g id="Vector_5">
<path d="M 164.229 271.821C 183.466 245.932 207.407 213.714 207.407 151.796C 207.407 125.528 202.788 99.657 194.048 76.984C 192.556 73.111 188.207 71.182 184.334 72.675C 180.461 74.168 178.532 78.517 180.025 82.389C 188.106 103.356 192.378 127.357 192.378 151.796C 192.378 208.74 170.081 238.747 152.165 262.857C 140.073 279.131 129.629 293.185 127.897 311.397C 127.858 311.807 127.827 312.203 127.79 312.609L 79.619 312.609C 79.582 312.202 79.551 311.805 79.512 311.397C 77.78 293.185 67.336 279.13 55.244 262.857C 37.328 238.747 15.031 208.74 15.031 151.796C 15.031 114.724 24.588 79.972 41.942 53.942C 58.672 28.85 80.606 15.031 103.705 15.031C 125.649 15.031 146.771 27.675 163.181 50.633C 165.562 53.965 170.333 54.757 173.665 52.376C 176.996 49.995 177.789 45.224 175.408 41.893C 156.098 14.877 130.633 0 103.703 0C 75.417 0 49.041 16.197 29.435 45.606C 10.454 74.078 -1.46484e-05 111.79 -1.46484e-05 151.796C -1.46484e-05 213.713 23.942 245.933 43.178 271.821C 54.372 286.885 63.213 298.784 64.549 312.821C 64.992 317.474 65.597 322.248 65.597 326.926C 66.363 341.36 66.063 354.662 64.695 367.417C 64.69 367.462 64.692 367.508 64.688 367.553C 62.772 385.272 59.083 399.11 55.64 412.004C 51.759 426.537 48.094 440.264 48.094 456.392C 48.094 473.658 53.803 488.042 64.604 497.99C 74.556 507.156 88.077 512 103.702 512C 119.328 512 132.849 507.156 142.8 497.99C 153.6 488.043 159.31 473.658 159.31 456.392C 159.31 440.264 155.645 426.538 151.764 412.004C 148.321 399.11 144.633 385.272 142.716 367.553C 142.712 367.508 142.714 367.462 142.709 367.417C 141.341 354.662 141.042 341.359 141.807 326.926L 141.806 326.924C 142.056 322.217 142.407 317.514 142.854 312.82C 144.193 298.784 153.035 286.885 164.229 271.821ZM 80.916 333.921C 80.843 331.827 80.784 329.733 80.683 327.64L 126.724 327.64C 126.623 329.734 126.558 331.83 126.491 333.925C 126.23 343.205 126.402 352.086 127.024 360.704L 80.384 360.704C 81.005 352.086 81.176 343.203 80.916 333.921ZM 144.282 456.391C 144.283 481.801 129.112 496.97 103.704 496.97C 78.296 496.97 63.125 481.8 63.125 456.391C 63.125 442.236 66.386 430.023 70.162 415.881C 73.216 404.443 76.627 391.647 78.799 375.734L 128.609 375.734C 130.781 391.647 134.192 404.443 137.246 415.881C 141.021 430.023 144.282 442.237 144.282 456.391Z" transform="translate(499.375 210)" fill="white"/>
</g>
</g>
</g>
<g id="Group_11">
<g id="Group_12">
<g id="Vector_6">
<path d="M 123.509 36.655C 110.002 13.018 91.582 2.74658e-07 71.641 2.74658e-07C 51.7 2.74658e-07 33.279 13.018 19.772 36.655C 7.02101 58.968 4.15039e-06 88.472 4.15039e-06 119.734C 4.15039e-06 150.996 7.02201 180.501 19.772 202.813C 33.279 226.45 51.699 239.468 71.64 239.468C 91.581 239.468 110.001 226.451 123.508 202.813C 136.259 180.5 143.28 150.996 143.28 119.734C 143.28 88.472 136.259 58.968 123.509 36.655ZM 71.64 224.439C 40.954 224.439 15.029 176.49 15.029 119.734C 15.029 62.978 40.954 15.03 71.64 15.03C 102.326 15.03 128.251 62.979 128.251 119.734C 128.251 176.49 102.326 224.439 71.64 224.439Z" transform="translate(531.438 242.062)" fill="white"/>
</g>
</g>
</g>
<g id="Group_13">
<g id="Group_14">
<g id="Vector_7">
<path d="M 7.51499 15.03C 11.6654 15.03 15.03 11.6654 15.03 7.515C 15.03 3.36458 11.6654 0 7.51499 0C 3.36457 0 5.37109e-06 3.36458 5.37109e-06 7.515C 5.37109e-06 11.6654 3.36457 15.03 7.51499 15.03Z" transform="translate(579.533 289.655)" fill="white"/>
</g>
</g>
</g>
<g id="Group_15">
<g id="Group_16">
<g id="Vector_8">
<path d="M 7.51499 15.03C 11.6654 15.03 15.03 11.6654 15.03 7.515C 15.03 3.36458 11.6654 0 7.51499 0C 3.36457 0 0 3.36458 0 7.515C 0 11.6654 3.36457 15.03 7.51499 15.03Z" transform="translate(612.097 289.655)" fill="white"/>
</g>
</g>
</g>
<g id="Group_17">
<g id="Group_18">
<g id="Vector_9">
<path d="M 7.51499 15.03C 11.6654 15.03 15.03 11.6654 15.03 7.515C 15.03 3.36458 11.6654 0 7.51499 0C 3.36457 0 5.37109e-06 3.36458 5.37109e-06 7.515C 5.37109e-06 11.6654 3.36457 15.03 7.51499 15.03Z" transform="translate(579.533 417.405)" fill="white"/>
</g>
</g>
</g>
<g id="Group_19">
<g id="Group_20">
<g id="Vector_10">
<path d="M 7.51499 15.03C 11.6654 15.03 15.03 11.6654 15.03 7.515C 15.03 3.36458 11.6654 0 7.51499 0C 3.36457 0 0 3.36458 0 7.515C 0 11.6654 3.36457 15.03 7.51499 15.03Z" transform="translate(612.097 417.405)" fill="white"/>
</g>
</g>
</g>
<g id="Group_21">
<g id="Group_22">
<g id="Vector_11">
<path d="M 7.515 15.03C 11.6654 15.03 15.03 11.6654 15.03 7.515C 15.03 3.36458 11.6654 2.86865e-06 7.515 2.86865e-06C 3.36458 2.86865e-06 1.41602e-05 3.36458 1.41602e-05 7.515C 1.41602e-05 11.6654 3.36458 15.03 7.515 15.03Z" transform="translate(635.142 321.217)" fill="white"/>
</g>
</g>
</g>
<g id="Group_23">
<g id="Group_24">
<g id="Vector_12">
<path d="M 7.51499 15.03C 11.6654 15.03 15.03 11.6654 15.03 7.515C 15.03 3.36458 11.6654 2.86865e-06 7.51499 2.86865e-06C 3.36457 2.86865e-06 4.15039e-06 3.36458 4.15039e-06 7.515C 4.15039e-06 11.6654 3.36457 15.03 7.51499 15.03Z" transform="translate(595.063 321.217)" fill="white"/>
</g>
</g>
</g>
<g id="Group_25">
<g id="Group_26">
<g id="Vector_13">
<path d="M 7.51499 15.03C 11.6654 15.03 15.03 11.6654 15.03 7.515C 15.03 3.36458 11.6654 2.86865e-06 7.51499 2.86865e-06C 3.36457 2.86865e-06 0 3.36458 0 7.515C 0 11.6654 3.36457 15.03 7.51499 15.03Z" transform="translate(554.985 321.217)" fill="white"/>
</g>
</g>
</g>
<g id="Group_27">
<g id="Group_28">
<g id="Vector_14">
<path d="M 7.515 15.03C 11.6654 15.03 15.03 11.6654 15.03 7.51501C 15.03 3.36459 11.6654 5.85938e-06 7.515 5.85938e-06C 3.36458 5.85938e-06 1.41602e-05 3.36459 1.41602e-05 7.51501C 1.41602e-05 11.6654 3.36458 15.03 7.515 15.03Z" transform="translate(635.142 354.281)" fill="white"/>
</g>
</g>
</g>
<g id="Group_29">
<g id="Group_30">
<g id="Vector_15">
<path d="M 7.51499 15.03C 11.6654 15.03 15.03 11.6654 15.03 7.51501C 15.03 3.36459 11.6654 5.85938e-06 7.51499 5.85938e-06C 3.36457 5.85938e-06 4.15039e-06 3.36459 4.15039e-06 7.51501C 4.15039e-06 11.6654 3.36457 15.03 7.51499 15.03Z" transform="translate(595.063 354.281)" fill="white"/>
</g>
</g>
</g>
<g id="Group_31">
<g id="Group_32">
<g id="Vector_16">
<path d="M 7.51499 15.03C 11.6654 15.03 15.03 11.6654 15.03 7.51501C 15.03 3.36459 11.6654 5.85938e-06 7.51499 5.85938e-06C 3.36457 5.85938e-06 0 3.36459 0 7.51501C 0 11.6654 3.36457 15.03 7.51499 15.03Z" transform="translate(554.985 354.281)" fill="white"/>
</g>
</g>
</g>
<g id="Group_33">
<g id="Group_34">
<g id="Vector_17">
<path d="M 7.515 15.03C 11.6654 15.03 15.03 11.6654 15.03 7.51499C 15.03 3.36457 11.6654 -4.76074e-06 7.515 -4.76074e-06C 3.36458 -4.76074e-06 1.41602e-05 3.36457 1.41602e-05 7.51499C 1.41602e-05 11.6654 3.36458 15.03 7.515 15.03Z" transform="translate(635.142 385.342)" fill="white"/>
</g>
</g>
</g>
<g id="Group_35">
<g id="Group_36">
<g id="Vector_18">
<path d="M 7.51499 15.03C 11.6654 15.03 15.03 11.6654 15.03 7.51499C 15.03 3.36457 11.6654 -4.76074e-06 7.51499 -4.76074e-06C 3.36457 -4.76074e-06 4.15039e-06 3.36457 4.15039e-06 7.51499C 4.15039e-06 11.6654 3.36457 15.03 7.51499 15.03Z" transform="translate(595.063 385.342)" fill="white"/>
</g>
</g>
</g>
<g id="Group_37">
<g id="Group_38">
<g id="Vector_19">
<path d="M 7.51499 15.03C 11.6654 15.03 15.03 11.6654 15.03 7.51499C 15.03 3.36457 11.6654 -4.76074e-06 7.51499 -4.76074e-06C 3.36457 -4.76074e-06 0 3.36457 0 7.51499C 0 11.6654 3.36457 15.03 7.51499 15.03Z" transform="translate(554.985 385.342)" fill="white"/>
</g>
</g>
</g>
</g>
</g>
</g>
</svg>

