<svg width="931" height="931" viewBox="0 0 931 931" version="1.1" xmlns="http://www.w3.org/2000/svg" xmlns:xlink="http://www.w3.org/1999/xlink">
<g id="Canvas" fill="none">
<g id="pet shop">
<g id="Ellipse">
<circle cx="465.5" cy="465.5" r="465.5" fill="#FF5722"/>
</g>
<g id="snack">
<g id="Group">
<g id="Group_2">
<g id="Vector">
<path d="M 360.705 119.734L 360.705 160.146C 360.705 164.296 364.069 167.661 368.22 167.661C 372.371 167.661 375.735 164.296 375.735 160.146L 375.735 121.508L 398.988 75C 399.506 73.965 399.782 72.799 399.782 71.64L 399.782 7.515C 399.782 1.45 392.621 -2.144 387.759 1.503L 360.205 22.168L 332.65 1.503C 329.979 -0.501 326.304 -0.501 323.632 1.503L 296.078 22.168L 268.525 1.503C 265.854 -0.501 262.179 -0.501 259.507 1.503L 231.953 22.168L 204.4 1.503C 201.729 -0.501 198.054 -0.501 195.382 1.503L 167.828 22.168L 140.275 1.503C 137.604 -0.501 133.929 -0.501 131.257 1.503L 103.703 22.168L 76.149 1.503C 73.478 -0.501 69.803 -0.501 67.131 1.503L 39.578 22.168L 12.024 1.503C 7.162 -2.144 0.00100061 1.45 0.00100061 7.515L 0.00100061 71.64C 0.00100061 72.798 0.276999 73.965 0.794999 75.001L 24.048 121.509L 24.048 390.493L 0.794 437C 0.276 438.035 1.15967e-06 439.201 1.15967e-06 440.36L 1.15967e-06 504.485C 1.15967e-06 510.55 7.161 514.144 12.023 510.497L 39.577 489.832L 67.131 510.497C 69.802 512.501 73.477 512.501 76.149 510.497L 103.703 489.832L 131.257 510.497C 133.928 512.501 137.603 512.501 140.275 510.497L 167.829 489.832L 195.383 510.497C 198.054 512.501 201.729 512.501 204.401 510.497L 231.955 489.832L 259.509 510.497C 262.18 512.501 265.855 512.501 268.527 510.497L 296.081 489.832L 323.635 510.497C 326.306 512.501 329.981 512.501 332.653 510.497L 360.207 489.832L 387.761 510.497C 392.626 514.147 399.784 510.542 399.784 504.485L 399.784 440.36C 399.784 439.202 399.508 438.035 398.99 436.999L 375.737 390.491L 375.737 196.885C 375.737 192.735 372.373 189.37 368.222 189.37C 364.071 189.37 360.707 192.735 360.707 196.885L 360.707 392.267C 360.707 393.434 360.979 394.585 361.501 395.628L 380.109 432.847L 19.675 432.847L 38.283 395.628C 38.805 394.585 39.077 393.435 39.077 392.267L 39.077 119.734C 39.077 118.567 38.805 117.416 38.283 116.373L 19.675 79.155L 380.108 79.155L 361.5 116.374C 360.977 117.417 360.705 118.567 360.705 119.734ZM 384.752 447.875L 384.752 489.456L 364.713 474.427C 362.042 472.423 358.367 472.423 355.695 474.427L 328.141 495.092L 300.587 474.427C 299.251 473.425 297.664 472.924 296.078 472.924C 294.492 472.924 292.905 473.425 291.569 474.427L 264.015 495.092L 236.461 474.427C 233.79 472.423 230.115 472.423 227.443 474.427L 199.891 495.092L 172.337 474.427C 169.666 472.423 165.991 472.423 163.319 474.427L 135.765 495.092L 108.211 474.427C 105.54 472.423 101.865 472.423 99.193 474.427L 71.639 495.092L 44.085 474.427C 41.414 472.423 37.739 472.423 35.067 474.427L 15.028 489.456L 15.028 447.875L 384.752 447.875L 384.752 447.875ZM 15.03 64.125L 15.03 22.544L 35.069 37.573C 37.74 39.577 41.415 39.577 44.087 37.573L 71.641 16.908L 99.195 37.573C 101.866 39.577 105.541 39.577 108.213 37.573L 135.767 16.908L 163.321 37.573C 165.992 39.577 169.667 39.577 172.339 37.573L 199.891 16.908L 227.445 37.573C 230.116 39.577 233.791 39.577 236.463 37.573L 264.017 16.908L 291.571 37.573C 294.242 39.577 297.917 39.577 300.589 37.573L 328.143 16.908L 355.697 37.573C 358.368 39.577 362.043 39.577 364.715 37.573L 384.754 22.544L 384.754 64.125L 15.03 64.125Z" transform="translate(266 209)" fill="white"/>
</g>
</g>
</g>
<g id="Group_3">
<g id="Group_4">
<g id="Vector_2">
<path d="M 192.258 45.599C 186.068 39.409 178.042 35.498 169.489 34.361C 168.352 25.808 164.441 17.782 158.251 11.592C 150.775 4.11601 140.837 -3.17383e-06 130.265 -3.17383e-06C 119.693 -3.17383e-06 109.754 4.11601 102.278 11.592C 88.663 25.207 87.06 46.354 97.471 61.743L 61.748 97.466C 55.256 93.057 47.598 90.687 39.578 90.687C 29.006 90.687 19.068 94.804 11.593 102.28C 4.11701 109.755 5.24902e-06 119.693 5.24902e-06 130.266C 5.24902e-06 140.838 4.117 150.776 11.592 158.252C 17.782 164.442 25.808 168.353 34.362 169.49C 35.5 178.044 39.41 186.069 45.601 192.259C 53.316 199.974 63.451 203.832 73.587 203.832C 83.721 203.832 93.856 199.974 101.572 192.259C 109.048 184.784 113.165 174.845 113.165 164.273C 113.165 156.252 110.794 148.594 106.386 142.102L 142.108 106.379C 157.497 116.787 178.645 115.187 192.26 101.572C 199.736 94.097 203.853 84.159 203.853 73.586C 203.851 63.013 199.734 53.075 192.258 45.599ZM 181.63 90.943C 172.061 100.514 156.485 100.516 146.915 90.943C 143.979 88.009 139.222 88.009 136.287 90.943L 90.944 136.287C 88.051 139.18 88.05 144.022 90.945 146.914C 95.581 151.55 98.135 157.715 98.135 164.272C 98.135 170.829 95.581 176.994 90.945 181.63C 81.373 191.199 65.8 191.202 56.229 181.63C 51.254 176.656 48.654 169.766 49.095 162.726C 49.375 158.277 45.57 154.48 41.125 154.756C 34.089 155.196 27.195 152.596 22.222 147.622C 12.758 138.159 12.758 122.369 22.222 112.906C 31.683 103.443 47.474 103.443 56.936 112.906C 59.83 115.8 64.67 115.799 67.564 112.906L 112.908 67.562C 115.843 64.627 115.843 59.87 112.908 56.935C 103.336 47.363 103.336 31.79 112.908 22.219C 122.37 12.755 138.162 12.758 147.624 22.219C 152.599 27.193 155.199 34.083 154.757 41.122C 154.477 45.571 158.281 49.369 162.727 49.093C 169.762 48.655 176.657 51.253 181.631 56.227C 191.094 65.69 191.094 81.48 181.63 90.943Z" transform="translate(362.187 364.853)" fill="white"/>
</g>
</g>
</g>
<g id="Group_5">
<g id="Group_6">
<g id="Vector_3">
<path d="M 7.515 15.03C 11.6654 15.03 15.03 11.6654 15.03 7.51499C 15.03 3.36457 11.6654 -5.7373e-06 7.515 -5.7373e-06C 3.36458 -5.7373e-06 1.44043e-05 3.36457 1.44043e-05 7.51499C 1.44043e-05 11.6654 3.36458 15.03 7.515 15.03Z" transform="translate(484.587 396.566)" fill="white"/>
</g>
</g>
</g>
<g id="Group_7">
<g id="Group_8">
<g id="Vector_4">
<path d="M 7.51499 15.03C 11.6654 15.03 15.03 11.6654 15.03 7.51501C 15.03 3.36459 11.6654 -4.39453e-06 7.51499 -4.39453e-06C 3.36457 -4.39453e-06 -5.61523e-06 3.36459 -5.61523e-06 7.51501C -5.61523e-06 11.6654 3.36457 15.03 7.51499 15.03Z" transform="translate(457.304 459.258)" fill="white"/>
</g>
</g>
</g>
<g id="Group_9">
<g id="Group_10">
<g id="Vector_5">
<path d="M 7.51499 15.03C 11.6654 15.03 15.03 11.6654 15.03 7.515C 15.03 3.36458 11.6654 4.15039e-06 7.51499 4.15039e-06C 3.36457 4.15039e-06 1.0498e-05 3.36458 1.0498e-05 7.515C 1.0498e-05 11.6654 3.36457 15.03 7.51499 15.03Z" transform="translate(518.233 430.923)" fill="white"/>
</g>
</g>
</g>
<g id="Group_11">
<g id="Group_12">
<g id="Vector_6">
<path d="M 7.515 15.03C 11.6654 15.03 15.03 11.6654 15.03 7.51501C 15.03 3.36459 11.6654 0 7.515 0C 3.36458 0 0 3.36459 0 7.51501C 0 11.6654 3.36458 15.03 7.515 15.03Z" transform="translate(394.251 486.892)" fill="white"/>
</g>
</g>
</g>
<g id="Group_13">
<g id="Group_14">
<g id="Vector_7">
<path d="M 7.515 15.03C 11.6654 15.03 15.03 11.6654 15.03 7.51499C 15.03 3.36457 11.6654 9.76562e-06 7.515 9.76562e-06C 3.36458 9.76562e-06 0 3.36457 0 7.51499C 0 11.6654 3.36458 15.03 7.515 15.03Z" transform="translate(427.906 521.26)" fill="white"/>
</g>
</g>
</g>
<g id="Group_15">
<g id="Group_16">
<g id="Vector_8">
<path d="M 23.546 3.54004e-06C 10.563 3.54004e-06 -5.24902e-06 10.563 -5.24902e-06 23.546C -5.24902e-06 36.529 10.563 47.092 23.546 47.092C 36.529 47.092 47.092 36.529 47.092 23.546C 47.092 10.562 36.529 3.54004e-06 23.546 3.54004e-06ZM 23.546 32.062C 18.85 32.062 15.029 28.242 15.029 23.545C 15.029 18.848 18.849 15.028 23.546 15.028C 28.243 15.028 32.063 18.848 32.063 23.545C 32.063 28.242 28.242 32.062 23.546 32.062Z" transform="translate(442.345 305.188)" fill="white"/>
</g>
</g>
</g>
<g id="Group_17">
<g id="Group_18">
<g id="Vector_9">
<path d="M 23.546 3.54004e-06C 10.563 3.54004e-06 -7.56836e-06 10.563 -7.56836e-06 23.546C -7.56836e-06 36.529 10.563 47.092 23.546 47.092C 36.529 47.092 47.092 36.529 47.092 23.546C 47.092 10.562 36.529 3.54004e-06 23.546 3.54004e-06ZM 23.546 32.062C 18.85 32.062 15.029 28.242 15.029 23.545C 15.029 18.848 18.849 15.028 23.546 15.028C 28.243 15.028 32.063 18.848 32.063 23.545C 32.063 28.242 28.242 32.062 23.546 32.062Z" transform="translate(522.502 305.188)" fill="white"/>
</g>
</g>
</g>
<g id="Group_19">
<g id="Group_20">
<g id="Vector_10">
<path d="M 23.546 3.54004e-06C 10.563 3.54004e-06 -2.92969e-06 10.563 -2.92969e-06 23.546C -2.92969e-06 36.529 10.563 47.092 23.546 47.092C 36.529 47.092 47.092 36.529 47.092 23.546C 47.092 10.562 36.53 3.54004e-06 23.546 3.54004e-06ZM 23.546 32.062C 18.85 32.062 15.029 28.242 15.029 23.545C 15.029 18.848 18.849 15.028 23.546 15.028C 28.243 15.028 32.063 18.848 32.063 23.545C 32.063 28.242 28.243 32.062 23.546 32.062Z" transform="translate(362.188 305.188)" fill="white"/>
</g>
</g>
</g>
<g id="Group_21">
<g id="Group_22">
<g id="Vector_11">
<path d="M 23.546 1.2207e-06C 10.563 1.2207e-06 -5.24902e-06 10.563 -5.24902e-06 23.546C -5.24902e-06 36.529 10.563 47.092 23.546 47.092C 36.529 47.092 47.092 36.529 47.092 23.546C 47.092 10.563 36.529 1.2207e-06 23.546 1.2207e-06ZM 23.546 32.063C 18.85 32.063 15.029 28.243 15.029 23.546C 15.029 18.85 18.849 15.029 23.546 15.029C 28.243 15.029 32.063 18.849 32.063 23.546C 32.063 28.242 28.242 32.063 23.546 32.063Z" transform="translate(442.345 577.72)" fill="white"/>
</g>
</g>
</g>
<g id="Group_23">
<g id="Group_24">
<g id="Vector_12">
<path d="M 23.546 1.2207e-06C 10.563 1.2207e-06 -7.56836e-06 10.563 -7.56836e-06 23.546C -7.56836e-06 36.529 10.563 47.092 23.546 47.092C 36.529 47.092 47.092 36.529 47.092 23.546C 47.092 10.563 36.529 1.2207e-06 23.546 1.2207e-06ZM 23.546 32.063C 18.85 32.063 15.029 28.243 15.029 23.546C 15.029 18.85 18.849 15.029 23.546 15.029C 28.243 15.029 32.063 18.849 32.063 23.546C 32.062 28.242 28.242 32.063 23.546 32.063Z" transform="translate(522.502 577.72)" fill="white"/>
</g>
</g>
</g>
<g id="Group_25">
<g id="Group_26">
<g id="Vector_13">
<path d="M 23.546 1.2207e-06C 10.563 1.2207e-06 -2.92969e-06 10.563 -2.92969e-06 23.546C -2.92969e-06 36.529 10.563 47.092 23.546 47.092C 36.529 47.092 47.092 36.529 47.092 23.546C 47.092 10.563 36.53 1.2207e-06 23.546 1.2207e-06ZM 23.546 32.063C 18.85 32.063 15.029 28.243 15.029 23.546C 15.029 18.85 18.849 15.029 23.546 15.029C 28.243 15.029 32.063 18.849 32.063 23.546C 32.063 28.242 28.243 32.063 23.546 32.063Z" transform="translate(362.188 577.72)" fill="white"/>
</g>
</g>
</g>
</g>
</g>
</g>
</svg>

